<svg width="458" height="200" viewBox="0 0 458 200" fill="none" xmlns="http://www.w3.org/2000/svg">
<path fill-rule="evenodd" clip-rule="evenodd" d="M100 190C149.706 190 190 149.706 190 100C190 50.2944 149.706 10 100 10C50.2944 10 10 50.2944 10 100C10 149.706 50.2944 190 100 190ZM122.755 62.4254C117.228 57.9513 109.604 55.7143 99.8824 55.7143H61.4286V66.0754L70.5423 67.8414V129.36L61.4286 131.126V141.429H96.8837V131.126L87.7112 129.36V106.754H101.764C105.801 106.872 108.918 108.128 111.113 110.522C113.347 112.877 114.464 116.134 114.464 120.294V125.181C114.464 129.969 115.601 133.874 117.875 136.896C120.148 139.918 124.088 141.429 129.693 141.429H138.571V131.068L136.455 130.773C134.73 130.577 133.495 129.969 132.75 128.948C132.006 127.889 131.633 126.417 131.633 124.533V120.177C131.633 115.035 130.516 110.738 128.282 107.284C126.087 103.791 122.461 101.299 117.404 99.8077C121.873 97.8454 125.263 95.2747 127.576 92.0958C129.889 88.9168 131.045 85.1688 131.045 80.8516C131.045 73.0024 128.282 66.8603 122.755 62.4254ZM87.7112 93.5086H99.5884C104.371 93.5086 107.957 92.4882 110.348 90.4474C112.74 88.4066 113.935 85.4631 113.935 81.617C113.935 77.7708 112.74 74.7096 110.348 72.4333C107.997 70.1177 104.508 68.96 99.8824 68.96H87.7112V93.5086Z" fill="#276749"/>
<path d="M228.188 79.5C233.354 79.5 237.406 80.6875 240.344 83.0625C243.281 85.4167 244.75 88.6771 244.75 92.8438C244.75 95.1354 244.135 97.125 242.906 98.8125C241.677 100.5 239.875 101.865 237.5 102.906C240.188 103.698 242.115 105.021 243.281 106.875C244.469 108.708 245.062 110.99 245.062 113.719V116.031C245.062 117.031 245.26 117.812 245.656 118.375C246.052 118.917 246.708 119.24 247.625 119.344L248.75 119.5V125H244.031C241.052 125 238.958 124.198 237.75 122.594C236.542 120.99 235.938 118.917 235.938 116.375V113.781C235.938 111.573 235.344 109.844 234.156 108.594C232.99 107.323 231.333 106.656 229.188 106.594H221.719V118.594L226.594 119.531V125H207.75V119.531L212.594 118.594V85.9375L207.75 85V79.5H228.188ZM221.719 99.5625H228.031C230.573 99.5625 232.479 99.0208 233.75 97.9375C235.021 96.8542 235.656 95.2917 235.656 93.25C235.656 91.2083 235.021 89.5833 233.75 88.375C232.5 87.1458 230.646 86.5312 228.188 86.5312H221.719V99.5625Z" fill="#276749"/>
<path d="M268.156 125.656C263.281 125.656 259.385 124.094 256.469 120.969C253.552 117.844 252.094 113.875 252.094 109.062V107.812C252.094 102.792 253.469 98.6562 256.219 95.4062C258.99 92.1562 262.698 90.5417 267.344 90.5625C271.906 90.5625 275.448 91.9375 277.969 94.6875C280.49 97.4375 281.75 101.156 281.75 105.844V110.812H261.562L261.5 111C261.667 113.229 262.406 115.062 263.719 116.5C265.052 117.938 266.854 118.656 269.125 118.656C271.146 118.656 272.823 118.458 274.156 118.062C275.49 117.646 276.948 117 278.531 116.125L281 121.75C279.604 122.854 277.792 123.781 275.562 124.531C273.354 125.281 270.885 125.656 268.156 125.656ZM267.344 97.5938C265.656 97.5938 264.323 98.2396 263.344 99.5312C262.365 100.823 261.76 102.521 261.531 104.625L261.625 104.781H272.812V103.969C272.812 102.031 272.354 100.49 271.438 99.3438C270.542 98.1771 269.177 97.5938 267.344 97.5938Z" fill="#276749"/>
<path d="M301.969 118.656C303.594 118.656 304.896 118.188 305.875 117.25C306.854 116.292 307.344 115.021 307.344 113.438H315.594L315.688 113.625C315.771 117.042 314.49 119.906 311.844 122.219C309.198 124.51 305.906 125.656 301.969 125.656C296.927 125.656 293.042 124.062 290.312 120.875C287.583 117.688 286.219 113.594 286.219 108.594V107.656C286.219 102.677 287.615 98.5833 290.406 95.375C293.219 92.1667 297.219 90.5625 302.406 90.5625C305.135 90.5625 307.583 90.9688 309.75 91.7812C311.917 92.5938 313.719 93.7396 315.156 95.2188L315.281 104.25H307.875L306.375 98.9688C305.917 98.5729 305.354 98.25 304.688 98C304.021 97.7292 303.26 97.5938 302.406 97.5938C299.823 97.5938 298 98.5312 296.938 100.406C295.875 102.281 295.344 104.698 295.344 107.656V108.594C295.344 111.615 295.833 114.052 296.812 115.906C297.792 117.74 299.51 118.656 301.969 118.656Z" fill="#276749"/>
<path d="M319.562 119.531L323.969 118.594V97.625L319.094 96.6875V91.1875H333.094V118.594L337.469 119.531V125H319.562V119.531ZM333.094 83.0938H323.969V76.25H333.094V83.0938Z" fill="#276749"/>
<path d="M339.781 96.6875V91.1875H353.031L353.469 95.125C354.469 93.6667 355.667 92.5417 357.062 91.75C358.458 90.9583 360.083 90.5625 361.938 90.5625C366.125 90.5625 369.375 92.1979 371.688 95.4688C374 98.7396 375.156 103.042 375.156 108.375V109.031C375.156 114.031 374 118.052 371.688 121.094C369.375 124.135 366.146 125.656 362 125.656C360.229 125.656 358.656 125.333 357.281 124.688C355.906 124.021 354.729 123.052 353.75 121.781V131.562L358.156 132.5V138H340.25V132.5L344.656 131.562V97.625L339.781 96.6875ZM366.031 108.375C366.031 105.188 365.5 102.604 364.438 100.625C363.375 98.6458 361.75 97.6562 359.562 97.6562C358.188 97.6562 357.01 97.9375 356.031 98.5C355.073 99.0625 354.312 99.8646 353.75 100.906V115.719C354.312 116.677 355.073 117.406 356.031 117.906C357.01 118.406 358.208 118.656 359.625 118.656C361.833 118.656 363.448 117.792 364.469 116.062C365.51 114.333 366.031 111.99 366.031 109.031V108.375Z" fill="#276749"/>
<path d="M395.406 125.656C390.531 125.656 386.635 124.094 383.719 120.969C380.802 117.844 379.344 113.875 379.344 109.062V107.812C379.344 102.792 380.719 98.6562 383.469 95.4062C386.24 92.1562 389.948 90.5417 394.594 90.5625C399.156 90.5625 402.698 91.9375 405.219 94.6875C407.74 97.4375 409 101.156 409 105.844V110.812H388.812L388.75 111C388.917 113.229 389.656 115.062 390.969 116.5C392.302 117.938 394.104 118.656 396.375 118.656C398.396 118.656 400.073 118.458 401.406 118.062C402.74 117.646 404.198 117 405.781 116.125L408.25 121.75C406.854 122.854 405.042 123.781 402.812 124.531C400.604 125.281 398.135 125.656 395.406 125.656ZM394.594 97.5938C392.906 97.5938 391.573 98.2396 390.594 99.5312C389.615 100.823 389.01 102.521 388.781 104.625L388.875 104.781H400.062V103.969C400.062 102.031 399.604 100.49 398.688 99.3438C397.792 98.1771 396.427 97.5938 394.594 97.5938Z" fill="#276749"/>
<path d="M414.031 119.531L418.406 118.594V97.625L413.562 96.6875V91.1875H426.906L427.312 96.125C428.104 94.375 429.125 93.0104 430.375 92.0312C431.625 91.0521 433.073 90.5625 434.719 90.5625C435.198 90.5625 435.698 90.6042 436.219 90.6875C436.76 90.75 437.208 90.8333 437.562 90.9375L436.594 99.25L432.844 99.1562C431.51 99.1562 430.406 99.4167 429.531 99.9375C428.656 100.458 427.99 101.198 427.531 102.156V118.594L431.906 119.531V125H414.031V119.531Z" fill="#276749"/>
<path d="M440 119.531L444.406 118.594V97.625L439.531 96.6875V91.1875H453.531V118.594L457.906 119.531V125H440V119.531ZM453.531 83.0938H444.406V76.25H453.531V83.0938Z" fill="#276749"/>
<path fill-rule="evenodd" clip-rule="evenodd" d="M99.8824 55.7143C109.604 55.7143 117.228 57.9513 122.755 62.4254C128.282 66.8603 131.045 73.0024 131.045 80.8516C131.045 85.1688 129.889 88.9168 127.576 92.0958C125.263 95.2747 121.873 97.8454 117.404 99.8077C122.461 101.299 126.087 103.791 128.282 107.284C130.516 110.738 131.633 115.035 131.633 120.177V124.533C131.633 126.417 132.006 127.889 132.75 128.948C133.495 129.969 134.73 130.577 136.455 130.773L138.571 131.068V141.429H129.693C124.088 141.429 120.148 139.918 117.875 136.896C115.601 133.874 114.464 129.969 114.464 125.181V120.294C114.464 116.134 113.347 112.877 111.113 110.522C108.918 108.128 105.801 106.872 101.764 106.754H87.7112V129.36L96.8837 131.126V141.429H61.4286V131.126L70.5423 129.36V67.8414L61.4286 66.0754V55.7143H99.8824ZM99.5884 93.5086H87.7112V68.96H99.8824C104.508 68.96 107.997 70.1177 110.348 72.4333C112.74 74.7096 113.935 77.7708 113.935 81.617C113.935 85.4631 112.74 88.4066 110.348 90.4474C107.957 92.4882 104.371 93.5086 99.5884 93.5086ZM190 100C190 149.706 149.706 190 100 190C50.2944 190 10 149.706 10 100C10 50.2944 50.2944 10 100 10C149.706 10 190 50.2944 190 100Z" fill="#276749"/>
</svg>
